<?xml version="1.0" encoding="utf-8" standalone="no"?>
<!DOCTYPE svg PUBLIC "-//W3C//DTD SVG 1.1//EN"
  "http://www.w3.org/Graphics/SVG/1.1/DTD/svg11.dtd">
<svg xmlns:xlink="http://www.w3.org/1999/xlink" width="511.037197pt" height="318.61875pt" viewBox="0 0 511.037197 318.61875" xmlns="http://www.w3.org/2000/svg" version="1.1">
 <metadata>
  <rdf:RDF xmlns:dc="http://purl.org/dc/elements/1.1/" xmlns:cc="http://creativecommons.org/ns#" xmlns:rdf="http://www.w3.org/1999/02/22-rdf-syntax-ns#">
   <cc:Work>
    <dc:type rdf:resource="http://purl.org/dc/dcmitype/StillImage"/>
    <dc:date>2026-08-09T01:40:16.817737</dc:date>
    <dc:format>image/svg+xml</dc:format>
    <dc:creator>
     <cc:Agent>
      <dc:title>Matplotlib v3.10.0, https://matplotlib.org/</dc:title>
     </cc:Agent>
    </dc:creator>
   </cc:Work>
  </rdf:RDF>
 </metadata>
 <defs>
  <style type="text/css">*{stroke-linejoin: round; stroke-linecap: butt}</style>
 </defs>
 <g id="figure_1">
  <g id="patch_1">
   <path d="M 0 318.61875 
L 511.037197 318.61875 
L 511.037197 0 
L 0 0 
z
" style="fill: #ffffff"/>
  </g>
  <g id="axes_1">
   <g id="patch_2">
    <path d="M 41.223125 295.708437 
L 495.554318 295.708437 
L 495.554318 20.798437 
L 41.223125 20.798437 
z
" style="fill: #ffffff"/>
   </g>
   <g id="matplotlib.axis_1">
    <g id="xtick_1">
     <g id="line2d_1">
      <defs>
       <path id="m9b79f68ad3" d="M 0 0 
L 0 3.5 
" style="stroke: #000000; stroke-width: 0.8"/>
      </defs>
      <g>
       <use xlink:href="#m9b79f68ad3" x="61.874543" y="295.708437" style="stroke: #000000; stroke-width: 0.8"/>
      </g>
     </g>
     <g id="text_1">
      <!-- Single agent -->
      <g transform="translate(33.610324 309.547031) scale(0.09 -0.09)">
       <defs>
        <path id="DejaVuSans-53" d="M 3425 4513 
L 3425 3897 
Q 3066 4069 2747 4153 
Q 2428 4238 2131 4238 
Q 1616 4238 1336 4038 
Q 1056 3838 1056 3469 
Q 1056 3159 1242 3001 
Q 1428 2844 1947 2747 
L 2328 2669 
Q 3034 2534 3370 2195 
Q 3706 1856 3706 1288 
Q 3706 609 3251 259 
Q 2797 -91 1919 -91 
Q 1588 -91 1214 -16 
Q 841 59 441 206 
L 441 856 
Q 825 641 1194 531 
Q 1563 422 1919 422 
Q 2459 422 2753 634 
Q 3047 847 3047 1241 
Q 3047 1584 2836 1778 
Q 2625 1972 2144 2069 
L 1759 2144 
Q 1053 2284 737 2584 
Q 422 2884 422 3419 
Q 422 4038 858 4394 
Q 1294 4750 2059 4750 
Q 2388 4750 2728 4690 
Q 3069 4631 3425 4513 
z
" transform="scale(0.015625)"/>
        <path id="DejaVuSans-69" d="M 603 3500 
L 1178 3500 
L 1178 0 
L 603 0 
L 603 3500 
z
M 603 4863 
L 1178 4863 
L 1178 4134 
L 603 4134 
L 603 4863 
z
" transform="scale(0.015625)"/>
        <path id="DejaVuSans-6e" d="M 3513 2113 
L 3513 0 
L 2938 0 
L 2938 2094 
Q 2938 2591 2744 2837 
Q 2550 3084 2163 3084 
Q 1697 3084 1428 2787 
Q 1159 2491 1159 1978 
L 1159 0 
L 581 0 
L 581 3500 
L 1159 3500 
L 1159 2956 
Q 1366 3272 1645 3428 
Q 1925 3584 2291 3584 
Q 2894 3584 3203 3211 
Q 3513 2838 3513 2113 
z
" transform="scale(0.015625)"/>
        <path id="DejaVuSans-67" d="M 2906 1791 
Q 2906 2416 2648 2759 
Q 2391 3103 1925 3103 
Q 1463 3103 1205 2759 
Q 947 2416 947 1791 
Q 947 1169 1205 825 
Q 1463 481 1925 481 
Q 2391 481 2648 825 
Q 2906 1169 2906 1791 
z
M 3481 434 
Q 3481 -459 3084 -895 
Q 2688 -1331 1869 -1331 
Q 1566 -1331 1297 -1286 
Q 1028 -1241 775 -1147 
L 775 -588 
Q 1028 -725 1275 -790 
Q 1522 -856 1778 -856 
Q 2344 -856 2625 -561 
Q 2906 -266 2906 331 
L 2906 616 
Q 2728 306 2450 153 
Q 2172 0 1784 0 
Q 1141 0 747 490 
Q 353 981 353 1791 
Q 353 2603 747 3093 
Q 1141 3584 1784 3584 
Q 2172 3584 2450 3431 
Q 2728 3278 2906 2969 
L 2906 3500 
L 3481 3500 
L 3481 434 
z
" transform="scale(0.015625)"/>
        <path id="DejaVuSans-6c" d="M 603 4863 
L 1178 4863 
L 1178 0 
L 603 0 
L 603 4863 
z
" transform="scale(0.015625)"/>
        <path id="DejaVuSans-65" d="M 3597 1894 
L 3597 1613 
L 953 1613 
Q 991 1019 1311 708 
Q 1631 397 2203 397 
Q 2534 397 2845 478 
Q 3156 559 3463 722 
L 3463 178 
Q 3153 47 2828 -22 
Q 2503 -91 2169 -91 
Q 1331 -91 842 396 
Q 353 884 353 1716 
Q 353 2575 817 3079 
Q 1281 3584 2069 3584 
Q 2775 3584 3186 3129 
Q 3597 2675 3597 1894 
z
M 3022 2063 
Q 3016 2534 2758 2815 
Q 2500 3097 2075 3097 
Q 1594 3097 1305 2825 
Q 1016 2553 972 2059 
L 3022 2063 
z
" transform="scale(0.015625)"/>
        <path id="DejaVuSans-20" transform="scale(0.015625)"/>
        <path id="DejaVuSans-61" d="M 2194 1759 
Q 1497 1759 1228 1600 
Q 959 1441 959 1056 
Q 959 750 1161 570 
Q 1363 391 1709 391 
Q 2188 391 2477 730 
Q 2766 1069 2766 1631 
L 2766 1759 
L 2194 1759 
z
M 3341 1997 
L 3341 0 
L 2766 0 
L 2766 531 
Q 2569 213 2275 61 
Q 1981 -91 1556 -91 
Q 1019 -91 701 211 
Q 384 513 384 1019 
Q 384 1609 779 1909 
Q 1175 2209 1959 2209 
L 2766 2209 
L 2766 2266 
Q 2766 2663 2505 2880 
Q 2244 3097 1772 3097 
Q 1472 3097 1187 3025 
Q 903 2953 641 2809 
L 641 3341 
Q 956 3463 1253 3523 
Q 1550 3584 1831 3584 
Q 2591 3584 2966 3190 
Q 3341 2797 3341 1997 
z
" transform="scale(0.015625)"/>
        <path id="DejaVuSans-74" d="M 1172 4494 
L 1172 3500 
L 2356 3500 
L 2356 3053 
L 1172 3053 
L 1172 1153 
Q 1172 725 1289 603 
Q 1406 481 1766 481 
L 2356 481 
L 2356 0 
L 1766 0 
Q 1100 0 847 248 
Q 594 497 594 1153 
L 594 3053 
L 172 3053 
L 172 3500 
L 594 3500 
L 594 4494 
L 1172 4494 
z
" transform="scale(0.015625)"/>
       </defs>
       <use xlink:href="#DejaVuSans-53"/>
       <use xlink:href="#DejaVuSans-69" transform="translate(63.476562 0)"/>
       <use xlink:href="#DejaVuSans-6e" transform="translate(91.259766 0)"/>
       <use xlink:href="#DejaVuSans-67" transform="translate(154.638672 0)"/>
       <use xlink:href="#DejaVuSans-6c" transform="translate(218.115234 0)"/>
       <use xlink:href="#DejaVuSans-65" transform="translate(245.898438 0)"/>
       <use xlink:href="#DejaVuSans-20" transform="translate(307.421875 0)"/>
       <use xlink:href="#DejaVuSans-61" transform="translate(339.208984 0)"/>
       <use xlink:href="#DejaVuSans-67" transform="translate(400.488281 0)"/>
       <use xlink:href="#DejaVuSans-65" transform="translate(463.964844 0)"/>
       <use xlink:href="#DejaVuSans-6e" transform="translate(525.488281 0)"/>
       <use xlink:href="#DejaVuSans-74" transform="translate(588.867188 0)"/>
      </g>
     </g>
    </g>
    <g id="xtick_2">
     <g id="line2d_2">
      <g>
       <use xlink:href="#m9b79f68ad3" x="199.550662" y="295.708437" style="stroke: #000000; stroke-width: 0.8"/>
      </g>
     </g>
     <g id="text_2">
      <!-- Independent ensemble -->
      <g transform="translate(147.603084 309.547031) scale(0.09 -0.09)">
       <defs>
        <path id="DejaVuSans-49" d="M 628 4666 
L 1259 4666 
L 1259 0 
L 628 0 
L 628 4666 
z
" transform="scale(0.015625)"/>
        <path id="DejaVuSans-64" d="M 2906 2969 
L 2906 4863 
L 3481 4863 
L 3481 0 
L 2906 0 
L 2906 525 
Q 2725 213 2448 61 
Q 2172 -91 1784 -91 
Q 1150 -91 751 415 
Q 353 922 353 1747 
Q 353 2572 751 3078 
Q 1150 3584 1784 3584 
Q 2172 3584 2448 3432 
Q 2725 3281 2906 2969 
z
M 947 1747 
Q 947 1113 1208 752 
Q 1469 391 1925 391 
Q 2381 391 2643 752 
Q 2906 1113 2906 1747 
Q 2906 2381 2643 2742 
Q 2381 3103 1925 3103 
Q 1469 3103 1208 2742 
Q 947 2381 947 1747 
z
" transform="scale(0.015625)"/>
        <path id="DejaVuSans-70" d="M 1159 525 
L 1159 -1331 
L 581 -1331 
L 581 3500 
L 1159 3500 
L 1159 2969 
Q 1341 3281 1617 3432 
Q 1894 3584 2278 3584 
Q 2916 3584 3314 3078 
Q 3713 2572 3713 1747 
Q 3713 922 3314 415 
Q 2916 -91 2278 -91 
Q 1894 -91 1617 61 
Q 1341 213 1159 525 
z
M 3116 1747 
Q 3116 2381 2855 2742 
Q 2594 3103 2138 3103 
Q 1681 3103 1420 2742 
Q 1159 2381 1159 1747 
Q 1159 1113 1420 752 
Q 1681 391 2138 391 
Q 2594 391 2855 752 
Q 3116 1113 3116 1747 
z
" transform="scale(0.015625)"/>
        <path id="DejaVuSans-73" d="M 2834 3397 
L 2834 2853 
Q 2591 2978 2328 3040 
Q 2066 3103 1784 3103 
Q 1356 3103 1142 2972 
Q 928 2841 928 2578 
Q 928 2378 1081 2264 
Q 1234 2150 1697 2047 
L 1894 2003 
Q 2506 1872 2764 1633 
Q 3022 1394 3022 966 
Q 3022 478 2636 193 
Q 2250 -91 1575 -91 
Q 1294 -91 989 -36 
Q 684 19 347 128 
L 347 722 
Q 666 556 975 473 
Q 1284 391 1588 391 
Q 1994 391 2212 530 
Q 2431 669 2431 922 
Q 2431 1156 2273 1281 
Q 2116 1406 1581 1522 
L 1381 1569 
Q 847 1681 609 1914 
Q 372 2147 372 2553 
Q 372 3047 722 3315 
Q 1072 3584 1716 3584 
Q 2034 3584 2315 3537 
Q 2597 3491 2834 3397 
z
" transform="scale(0.015625)"/>
        <path id="DejaVuSans-6d" d="M 3328 2828 
Q 3544 3216 3844 3400 
Q 4144 3584 4550 3584 
Q 5097 3584 5394 3201 
Q 5691 2819 5691 2113 
L 5691 0 
L 5113 0 
L 5113 2094 
Q 5113 2597 4934 2840 
Q 4756 3084 4391 3084 
Q 3944 3084 3684 2787 
Q 3425 2491 3425 1978 
L 3425 0 
L 2847 0 
L 2847 2094 
Q 2847 2600 2669 2842 
Q 2491 3084 2119 3084 
Q 1678 3084 1418 2786 
Q 1159 2488 1159 1978 
L 1159 0 
L 581 0 
L 581 3500 
L 1159 3500 
L 1159 2956 
Q 1356 3278 1631 3431 
Q 1906 3584 2284 3584 
Q 2666 3584 2933 3390 
Q 3200 3197 3328 2828 
z
" transform="scale(0.015625)"/>
        <path id="DejaVuSans-62" d="M 3116 1747 
Q 3116 2381 2855 2742 
Q 2594 3103 2138 3103 
Q 1681 3103 1420 2742 
Q 1159 2381 1159 1747 
Q 1159 1113 1420 752 
Q 1681 391 2138 391 
Q 2594 391 2855 752 
Q 3116 1113 3116 1747 
z
M 1159 2969 
Q 1341 3281 1617 3432 
Q 1894 3584 2278 3584 
Q 2916 3584 3314 3078 
Q 3713 2572 3713 1747 
Q 3713 922 3314 415 
Q 2916 -91 2278 -91 
Q 1894 -91 1617 61 
Q 1341 213 1159 525 
L 1159 0 
L 581 0 
L 581 4863 
L 1159 4863 
L 1159 2969 
z
" transform="scale(0.015625)"/>
       </defs>
       <use xlink:href="#DejaVuSans-49"/>
       <use xlink:href="#DejaVuSans-6e" transform="translate(29.492188 0)"/>
       <use xlink:href="#DejaVuSans-64" transform="translate(92.871094 0)"/>
       <use xlink:href="#DejaVuSans-65" transform="translate(156.347656 0)"/>
       <use xlink:href="#DejaVuSans-70" transform="translate(217.871094 0)"/>
       <use xlink:href="#DejaVuSans-65" transform="translate(281.347656 0)"/>
       <use xlink:href="#DejaVuSans-6e" transform="translate(342.871094 0)"/>
       <use xlink:href="#DejaVuSans-64" transform="translate(406.25 0)"/>
       <use xlink:href="#DejaVuSans-65" transform="translate(469.726562 0)"/>
       <use xlink:href="#DejaVuSans-6e" transform="translate(531.25 0)"/>
       <use xlink:href="#DejaVuSans-74" transform="translate(594.628906 0)"/>
       <use xlink:href="#DejaVuSans-20" transform="translate(633.837891 0)"/>
       <use xlink:href="#DejaVuSans-65" transform="translate(665.625 0)"/>
       <use xlink:href="#DejaVuSans-6e" transform="translate(727.148438 0)"/>
       <use xlink:href="#DejaVuSans-73" transform="translate(790.527344 0)"/>
       <use xlink:href="#DejaVuSans-65" transform="translate(842.626953 0)"/>
       <use xlink:href="#DejaVuSans-6d" transform="translate(904.150391 0)"/>
       <use xlink:href="#DejaVuSans-62" transform="translate(1001.5625 0)"/>
       <use xlink:href="#DejaVuSans-6c" transform="translate(1065.039062 0)"/>
       <use xlink:href="#DejaVuSans-65" transform="translate(1092.822266 0)"/>
      </g>
     </g>
    </g>
    <g id="xtick_3">
     <g id="line2d_3">
      <g>
       <use xlink:href="#m9b79f68ad3" x="337.226781" y="295.708437" style="stroke: #000000; stroke-width: 0.8"/>
      </g>
     </g>
     <g id="text_3">
      <!-- Normal debate -->
      <g transform="translate(303.741156 309.547031) scale(0.09 -0.09)">
       <defs>
        <path id="DejaVuSans-4e" d="M 628 4666 
L 1478 4666 
L 3547 763 
L 3547 4666 
L 4159 4666 
L 4159 0 
L 3309 0 
L 1241 3903 
L 1241 0 
L 628 0 
L 628 4666 
z
" transform="scale(0.015625)"/>
        <path id="DejaVuSans-6f" d="M 1959 3097 
Q 1497 3097 1228 2736 
Q 959 2375 959 1747 
Q 959 1119 1226 758 
Q 1494 397 1959 397 
Q 2419 397 2687 759 
Q 2956 1122 2956 1747 
Q 2956 2369 2687 2733 
Q 2419 3097 1959 3097 
z
M 1959 3584 
Q 2709 3584 3137 3096 
Q 3566 2609 3566 1747 
Q 3566 888 3137 398 
Q 2709 -91 1959 -91 
Q 1206 -91 779 398 
Q 353 888 353 1747 
Q 353 2609 779 3096 
Q 1206 3584 1959 3584 
z
" transform="scale(0.015625)"/>
        <path id="DejaVuSans-72" d="M 2631 2963 
Q 2534 3019 2420 3045 
Q 2306 3072 2169 3072 
Q 1681 3072 1420 2755 
Q 1159 2438 1159 1844 
L 1159 0 
L 581 0 
L 581 3500 
L 1159 3500 
L 1159 2956 
Q 1341 3275 1631 3429 
Q 1922 3584 2338 3584 
Q 2397 3584 2469 3576 
Q 2541 3569 2628 3553 
L 2631 2963 
z
" transform="scale(0.015625)"/>
       </defs>
       <use xlink:href="#DejaVuSans-4e"/>
       <use xlink:href="#DejaVuSans-6f" transform="translate(74.804688 0)"/>
       <use xlink:href="#DejaVuSans-72" transform="translate(135.986328 0)"/>
       <use xlink:href="#DejaVuSans-6d" transform="translate(175.349609 0)"/>
       <use xlink:href="#DejaVuSans-61" transform="translate(272.761719 0)"/>
       <use xlink:href="#DejaVuSans-6c" transform="translate(334.041016 0)"/>
       <use xlink:href="#DejaVuSans-20" transform="translate(361.824219 0)"/>
       <use xlink:href="#DejaVuSans-64" transform="translate(393.611328 0)"/>
       <use xlink:href="#DejaVuSans-65" transform="translate(457.087891 0)"/>
       <use xlink:href="#DejaVuSans-62" transform="translate(518.611328 0)"/>
       <use xlink:href="#DejaVuSans-61" transform="translate(582.087891 0)"/>
       <use xlink:href="#DejaVuSans-74" transform="translate(643.367188 0)"/>
       <use xlink:href="#DejaVuSans-65" transform="translate(682.576172 0)"/>
      </g>
     </g>
    </g>
    <g id="xtick_4">
     <g id="line2d_4">
      <g>
       <use xlink:href="#m9b79f68ad3" x="474.9029" y="295.708437" style="stroke: #000000; stroke-width: 0.8"/>
      </g>
     </g>
     <g id="text_4">
      <!-- Critic debate -->
      <g transform="translate(445.968603 309.547031) scale(0.09 -0.09)">
       <defs>
        <path id="DejaVuSans-43" d="M 4122 4306 
L 4122 3641 
Q 3803 3938 3442 4084 
Q 3081 4231 2675 4231 
Q 1875 4231 1450 3742 
Q 1025 3253 1025 2328 
Q 1025 1406 1450 917 
Q 1875 428 2675 428 
Q 3081 428 3442 575 
Q 3803 722 4122 1019 
L 4122 359 
Q 3791 134 3420 21 
Q 3050 -91 2638 -91 
Q 1578 -91 968 557 
Q 359 1206 359 2328 
Q 359 3453 968 4101 
Q 1578 4750 2638 4750 
Q 3056 4750 3426 4639 
Q 3797 4528 4122 4306 
z
" transform="scale(0.015625)"/>
        <path id="DejaVuSans-63" d="M 3122 3366 
L 3122 2828 
Q 2878 2963 2633 3030 
Q 2388 3097 2138 3097 
Q 1578 3097 1268 2742 
Q 959 2388 959 1747 
Q 959 1106 1268 751 
Q 1578 397 2138 397 
Q 2388 397 2633 464 
Q 2878 531 3122 666 
L 3122 134 
Q 2881 22 2623 -34 
Q 2366 -91 2075 -91 
Q 1284 -91 818 406 
Q 353 903 353 1747 
Q 353 2603 823 3093 
Q 1294 3584 2113 3584 
Q 2378 3584 2631 3529 
Q 2884 3475 3122 3366 
z
" transform="scale(0.015625)"/>
       </defs>
       <use xlink:href="#DejaVuSans-43"/>
       <use xlink:href="#DejaVuSans-72" transform="translate(69.824219 0)"/>
       <use xlink:href="#DejaVuSans-69" transform="translate(110.9375 0)"/>
       <use xlink:href="#DejaVuSans-74" transform="translate(138.720703 0)"/>
       <use xlink:href="#DejaVuSans-69" transform="translate(177.929688 0)"/>
       <use xlink:href="#DejaVuSans-63" transform="translate(205.712891 0)"/>
       <use xlink:href="#DejaVuSans-20" transform="translate(260.693359 0)"/>
       <use xlink:href="#DejaVuSans-64" transform="translate(292.480469 0)"/>
       <use xlink:href="#DejaVuSans-65" transform="translate(355.957031 0)"/>
       <use xlink:href="#DejaVuSans-62" transform="translate(417.480469 0)"/>
       <use xlink:href="#DejaVuSans-61" transform="translate(480.957031 0)"/>
       <use xlink:href="#DejaVuSans-74" transform="translate(542.236328 0)"/>
       <use xlink:href="#DejaVuSans-65" transform="translate(581.445312 0)"/>
      </g>
     </g>
    </g>
   </g>
   <g id="matplotlib.axis_2">
    <g id="ytick_1">
     <g id="line2d_5">
      <path d="M 41.223125 295.708437 
L 495.554318 295.708437 
" clip-path="url(#p058911653e)" style="fill: none; stroke: #b0b0b0; stroke-opacity: 0.25; stroke-width: 0.8; stroke-linecap: square"/>
     </g>
     <g id="line2d_6">
      <defs>
       <path id="mad00f21b53" d="M 0 0 
L -3.5 0 
" style="stroke: #000000; stroke-width: 0.8"/>
      </defs>
      <g>
       <use xlink:href="#mad00f21b53" x="41.223125" y="295.708437" style="stroke: #000000; stroke-width: 0.8"/>
      </g>
     </g>
     <g id="text_5">
      <!-- 0.0 -->
      <g transform="translate(19.910313 299.127734) scale(0.09 -0.09)">
       <defs>
        <path id="DejaVuSans-30" d="M 2034 4250 
Q 1547 4250 1301 3770 
Q 1056 3291 1056 2328 
Q 1056 1369 1301 889 
Q 1547 409 2034 409 
Q 2525 409 2770 889 
Q 3016 1369 3016 2328 
Q 3016 3291 2770 3770 
Q 2525 4250 2034 4250 
z
M 2034 4750 
Q 2819 4750 3233 4129 
Q 3647 3509 3647 2328 
Q 3647 1150 3233 529 
Q 2819 -91 2034 -91 
Q 1250 -91 836 529 
Q 422 1150 422 2328 
Q 422 3509 836 4129 
Q 1250 4750 2034 4750 
z
" transform="scale(0.015625)"/>
        <path id="DejaVuSans-2e" d="M 684 794 
L 1344 794 
L 1344 0 
L 684 0 
L 684 794 
z
" transform="scale(0.015625)"/>
       </defs>
       <use xlink:href="#DejaVuSans-30"/>
       <use xlink:href="#DejaVuSans-2e" transform="translate(63.623047 0)"/>
       <use xlink:href="#DejaVuSans-30" transform="translate(95.410156 0)"/>
      </g>
     </g>
    </g>
    <g id="ytick_2">
     <g id="line2d_7">
      <path d="M 41.223125 240.726437 
L 495.554318 240.726437 
" clip-path="url(#p058911653e)" style="fill: none; stroke: #b0b0b0; stroke-opacity: 0.25; stroke-width: 0.8; stroke-linecap: square"/>
     </g>
     <g id="line2d_8">
      <g>
       <use xlink:href="#mad00f21b53" x="41.223125" y="240.726437" style="stroke: #000000; stroke-width: 0.8"/>
      </g>
     </g>
     <g id="text_6">
      <!-- 0.2 -->
      <g transform="translate(19.910313 244.145734) scale(0.09 -0.09)">
       <defs>
        <path id="DejaVuSans-32" d="M 1228 531 
L 3431 531 
L 3431 0 
L 469 0 
L 469 531 
Q 828 903 1448 1529 
Q 2069 2156 2228 2338 
Q 2531 2678 2651 2914 
Q 2772 3150 2772 3378 
Q 2772 3750 2511 3984 
Q 2250 4219 1831 4219 
Q 1534 4219 1204 4116 
Q 875 4013 500 3803 
L 500 4441 
Q 881 4594 1212 4672 
Q 1544 4750 1819 4750 
Q 2544 4750 2975 4387 
Q 3406 4025 3406 3419 
Q 3406 3131 3298 2873 
Q 3191 2616 2906 2266 
Q 2828 2175 2409 1742 
Q 1991 1309 1228 531 
z
" transform="scale(0.015625)"/>
       </defs>
       <use xlink:href="#DejaVuSans-30"/>
       <use xlink:href="#DejaVuSans-2e" transform="translate(63.623047 0)"/>
       <use xlink:href="#DejaVuSans-32" transform="translate(95.410156 0)"/>
      </g>
     </g>
    </g>
    <g id="ytick_3">
     <g id="line2d_9">
      <path d="M 41.223125 185.744437 
L 495.554318 185.744437 
" clip-path="url(#p058911653e)" style="fill: none; stroke: #b0b0b0; stroke-opacity: 0.25; stroke-width: 0.8; stroke-linecap: square"/>
     </g>
     <g id="line2d_10">
      <g>
       <use xlink:href="#mad00f21b53" x="41.223125" y="185.744437" style="stroke: #000000; stroke-width: 0.8"/>
      </g>
     </g>
     <g id="text_7">
      <!-- 0.4 -->
      <g transform="translate(19.910313 189.163734) scale(0.09 -0.09)">
       <defs>
        <path id="DejaVuSans-34" d="M 2419 4116 
L 825 1625 
L 2419 1625 
L 2419 4116 
z
M 2253 4666 
L 3047 4666 
L 3047 1625 
L 3713 1625 
L 3713 1100 
L 3047 1100 
L 3047 0 
L 2419 0 
L 2419 1100 
L 313 1100 
L 313 1709 
L 2253 4666 
z
" transform="scale(0.015625)"/>
       </defs>
       <use xlink:href="#DejaVuSans-30"/>
       <use xlink:href="#DejaVuSans-2e" transform="translate(63.623047 0)"/>
       <use xlink:href="#DejaVuSans-34" transform="translate(95.410156 0)"/>
      </g>
     </g>
    </g>
    <g id="ytick_4">
     <g id="line2d_11">
      <path d="M 41.223125 130.762437 
L 495.554318 130.762437 
" clip-path="url(#p058911653e)" style="fill: none; stroke: #b0b0b0; stroke-opacity: 0.25; stroke-width: 0.8; stroke-linecap: square"/>
     </g>
     <g id="line2d_12">
      <g>
       <use xlink:href="#mad00f21b53" x="41.223125" y="130.762437" style="stroke: #000000; stroke-width: 0.8"/>
      </g>
     </g>
     <g id="text_8">
      <!-- 0.6 -->
      <g transform="translate(19.910313 134.181734) scale(0.09 -0.09)">
       <defs>
        <path id="DejaVuSans-36" d="M 2113 2584 
Q 1688 2584 1439 2293 
Q 1191 2003 1191 1497 
Q 1191 994 1439 701 
Q 1688 409 2113 409 
Q 2538 409 2786 701 
Q 3034 994 3034 1497 
Q 3034 2003 2786 2293 
Q 2538 2584 2113 2584 
z
M 3366 4563 
L 3366 3988 
Q 3128 4100 2886 4159 
Q 2644 4219 2406 4219 
Q 1781 4219 1451 3797 
Q 1122 3375 1075 2522 
Q 1259 2794 1537 2939 
Q 1816 3084 2150 3084 
Q 2853 3084 3261 2657 
Q 3669 2231 3669 1497 
Q 3669 778 3244 343 
Q 2819 -91 2113 -91 
Q 1303 -91 875 529 
Q 447 1150 447 2328 
Q 447 3434 972 4092 
Q 1497 4750 2381 4750 
Q 2619 4750 2861 4703 
Q 3103 4656 3366 4563 
z
" transform="scale(0.015625)"/>
       </defs>
       <use xlink:href="#DejaVuSans-30"/>
       <use xlink:href="#DejaVuSans-2e" transform="translate(63.623047 0)"/>
       <use xlink:href="#DejaVuSans-36" transform="translate(95.410156 0)"/>
      </g>
     </g>
    </g>
    <g id="ytick_5">
     <g id="line2d_13">
      <path d="M 41.223125 75.780437 
L 495.554318 75.780437 
" clip-path="url(#p058911653e)" style="fill: none; stroke: #b0b0b0; stroke-opacity: 0.25; stroke-width: 0.8; stroke-linecap: square"/>
     </g>
     <g id="line2d_14">
      <g>
       <use xlink:href="#mad00f21b53" x="41.223125" y="75.780437" style="stroke: #000000; stroke-width: 0.8"/>
      </g>
     </g>
     <g id="text_9">
      <!-- 0.8 -->
      <g transform="translate(19.910313 79.199734) scale(0.09 -0.09)">
       <defs>
        <path id="DejaVuSans-38" d="M 2034 2216 
Q 1584 2216 1326 1975 
Q 1069 1734 1069 1313 
Q 1069 891 1326 650 
Q 1584 409 2034 409 
Q 2484 409 2743 651 
Q 3003 894 3003 1313 
Q 3003 1734 2745 1975 
Q 2488 2216 2034 2216 
z
M 1403 2484 
Q 997 2584 770 2862 
Q 544 3141 544 3541 
Q 544 4100 942 4425 
Q 1341 4750 2034 4750 
Q 2731 4750 3128 4425 
Q 3525 4100 3525 3541 
Q 3525 3141 3298 2862 
Q 3072 2584 2669 2484 
Q 3125 2378 3379 2068 
Q 3634 1759 3634 1313 
Q 3634 634 3220 271 
Q 2806 -91 2034 -91 
Q 1263 -91 848 271 
Q 434 634 434 1313 
Q 434 1759 690 2068 
Q 947 2378 1403 2484 
z
M 1172 3481 
Q 1172 3119 1398 2916 
Q 1625 2713 2034 2713 
Q 2441 2713 2670 2916 
Q 2900 3119 2900 3481 
Q 2900 3844 2670 4047 
Q 2441 4250 2034 4250 
Q 1625 4250 1398 4047 
Q 1172 3844 1172 3481 
z
" transform="scale(0.015625)"/>
       </defs>
       <use xlink:href="#DejaVuSans-30"/>
       <use xlink:href="#DejaVuSans-2e" transform="translate(63.623047 0)"/>
       <use xlink:href="#DejaVuSans-38" transform="translate(95.410156 0)"/>
      </g>
     </g>
    </g>
    <g id="ytick_6">
     <g id="line2d_15">
      <path d="M 41.223125 20.798437 
L 495.554318 20.798437 
" clip-path="url(#p058911653e)" style="fill: none; stroke: #b0b0b0; stroke-opacity: 0.25; stroke-width: 0.8; stroke-linecap: square"/>
     </g>
     <g id="line2d_16">
      <g>
       <use xlink:href="#mad00f21b53" x="41.223125" y="20.798437" style="stroke: #000000; stroke-width: 0.8"/>
      </g>
     </g>
     <g id="text_10">
      <!-- 1.0 -->
      <g transform="translate(19.910313 24.217734) scale(0.09 -0.09)">
       <defs>
        <path id="DejaVuSans-31" d="M 794 531 
L 1825 531 
L 1825 4091 
L 703 3866 
L 703 4441 
L 1819 4666 
L 2450 4666 
L 2450 531 
L 3481 531 
L 3481 0 
L 794 0 
L 794 531 
z
" transform="scale(0.015625)"/>
       </defs>
       <use xlink:href="#DejaVuSans-31"/>
       <use xlink:href="#DejaVuSans-2e" transform="translate(63.623047 0)"/>
       <use xlink:href="#DejaVuSans-30" transform="translate(95.410156 0)"/>
      </g>
     </g>
    </g>
    <g id="text_11">
     <!-- Preservation rate -->
     <g transform="translate(14.038594 196.980156) rotate(-90) scale(0.09 -0.09)">
      <defs>
       <path id="DejaVuSans-50" d="M 1259 4147 
L 1259 2394 
L 2053 2394 
Q 2494 2394 2734 2622 
Q 2975 2850 2975 3272 
Q 2975 3691 2734 3919 
Q 2494 4147 2053 4147 
L 1259 4147 
z
M 628 4666 
L 2053 4666 
Q 2838 4666 3239 4311 
Q 3641 3956 3641 3272 
Q 3641 2581 3239 2228 
Q 2838 1875 2053 1875 
L 1259 1875 
L 1259 0 
L 628 0 
L 628 4666 
z
" transform="scale(0.015625)"/>
       <path id="DejaVuSans-76" d="M 191 3500 
L 800 3500 
L 1894 563 
L 2988 3500 
L 3597 3500 
L 2284 0 
L 1503 0 
L 191 3500 
z
" transform="scale(0.015625)"/>
      </defs>
      <use xlink:href="#DejaVuSans-50"/>
      <use xlink:href="#DejaVuSans-72" transform="translate(58.552734 0)"/>
      <use xlink:href="#DejaVuSans-65" transform="translate(97.416016 0)"/>
      <use xlink:href="#DejaVuSans-73" transform="translate(158.939453 0)"/>
      <use xlink:href="#DejaVuSans-65" transform="translate(211.039062 0)"/>
      <use xlink:href="#DejaVuSans-72" transform="translate(272.5625 0)"/>
      <use xlink:href="#DejaVuSans-76" transform="translate(313.675781 0)"/>
      <use xlink:href="#DejaVuSans-61" transform="translate(372.855469 0)"/>
      <use xlink:href="#DejaVuSans-74" transform="translate(434.134766 0)"/>
      <use xlink:href="#DejaVuSans-69" transform="translate(473.34375 0)"/>
      <use xlink:href="#DejaVuSans-6f" transform="translate(501.126953 0)"/>
      <use xlink:href="#DejaVuSans-6e" transform="translate(562.308594 0)"/>
      <use xlink:href="#DejaVuSans-20" transform="translate(625.6875 0)"/>
      <use xlink:href="#DejaVuSans-72" transform="translate(657.474609 0)"/>
      <use xlink:href="#DejaVuSans-61" transform="translate(698.587891 0)"/>
      <use xlink:href="#DejaVuSans-74" transform="translate(759.867188 0)"/>
      <use xlink:href="#DejaVuSans-65" transform="translate(799.076172 0)"/>
     </g>
    </g>
   </g>
   <g id="line2d_17">
    <path d="M 61.874543 113.47643 
L 199.550662 100.616057 
L 337.226781 97.075549 
L 474.9029 69.844881 
" clip-path="url(#p058911653e)" style="fill: none; stroke: #8a99a8; stroke-opacity: 0.55; stroke-width: 0.9; stroke-linecap: square"/>
    <defs>
     <path id="m2aab3cba64" d="M 0 1.5 
C 0.397805 1.5 0.77937 1.341951 1.06066 1.06066 
C 1.341951 0.77937 1.5 0.397805 1.5 0 
C 1.5 -0.397805 1.341951 -0.77937 1.06066 -1.06066 
C 0.77937 -1.341951 0.397805 -1.5 0 -1.5 
C -0.397805 -1.5 -0.77937 -1.341951 -1.06066 -1.06066 
C -1.341951 -0.77937 -1.5 -0.397805 -1.5 0 
C -1.5 0.397805 -1.341951 0.77937 -1.06066 1.06066 
C -0.77937 1.341951 -0.397805 1.5 0 1.5 
z
" style="stroke: #8a99a8; stroke-opacity: 0.55"/>
    </defs>
    <g clip-path="url(#p058911653e)">
     <use xlink:href="#m2aab3cba64" x="61.874543" y="113.47643" style="fill: #8a99a8; fill-opacity: 0.55; stroke: #8a99a8; stroke-opacity: 0.55"/>
     <use xlink:href="#m2aab3cba64" x="199.550662" y="100.616057" style="fill: #8a99a8; fill-opacity: 0.55; stroke: #8a99a8; stroke-opacity: 0.55"/>
     <use xlink:href="#m2aab3cba64" x="337.226781" y="97.075549" style="fill: #8a99a8; fill-opacity: 0.55; stroke: #8a99a8; stroke-opacity: 0.55"/>
     <use xlink:href="#m2aab3cba64" x="474.9029" y="69.844881" style="fill: #8a99a8; fill-opacity: 0.55; stroke: #8a99a8; stroke-opacity: 0.55"/>
    </g>
   </g>
   <g id="line2d_18">
    <path d="M 61.874543 60.408194 
L 199.550662 60.177177 
L 337.226781 56.991071 
L 474.9029 60.793222 
" clip-path="url(#p058911653e)" style="fill: none; stroke: #8a99a8; stroke-opacity: 0.55; stroke-width: 0.9; stroke-linecap: square"/>
    <g clip-path="url(#p058911653e)">
     <use xlink:href="#m2aab3cba64" x="61.874543" y="60.408194" style="fill: #8a99a8; fill-opacity: 0.55; stroke: #8a99a8; stroke-opacity: 0.55"/>
     <use xlink:href="#m2aab3cba64" x="199.550662" y="60.177177" style="fill: #8a99a8; fill-opacity: 0.55; stroke: #8a99a8; stroke-opacity: 0.55"/>
     <use xlink:href="#m2aab3cba64" x="337.226781" y="56.991071" style="fill: #8a99a8; fill-opacity: 0.55; stroke: #8a99a8; stroke-opacity: 0.55"/>
     <use xlink:href="#m2aab3cba64" x="474.9029" y="60.793222" style="fill: #8a99a8; fill-opacity: 0.55; stroke: #8a99a8; stroke-opacity: 0.55"/>
    </g>
   </g>
   <g id="line2d_19">
    <path d="M 61.874543 20.798437 
L 199.550662 20.798437 
L 337.226781 20.798437 
L 474.9029 20.798437 
" clip-path="url(#p058911653e)" style="fill: none; stroke: #8a99a8; stroke-opacity: 0.55; stroke-width: 0.9; stroke-linecap: square"/>
    <g clip-path="url(#p058911653e)">
     <use xlink:href="#m2aab3cba64" x="61.874543" y="20.798437" style="fill: #8a99a8; fill-opacity: 0.55; stroke: #8a99a8; stroke-opacity: 0.55"/>
     <use xlink:href="#m2aab3cba64" x="199.550662" y="20.798437" style="fill: #8a99a8; fill-opacity: 0.55; stroke: #8a99a8; stroke-opacity: 0.55"/>
     <use xlink:href="#m2aab3cba64" x="337.226781" y="20.798437" style="fill: #8a99a8; fill-opacity: 0.55; stroke: #8a99a8; stroke-opacity: 0.55"/>
     <use xlink:href="#m2aab3cba64" x="474.9029" y="20.798437" style="fill: #8a99a8; fill-opacity: 0.55; stroke: #8a99a8; stroke-opacity: 0.55"/>
    </g>
   </g>
   <g id="line2d_20">
    <path d="M 61.874543 110.144187 
L 199.550662 110.548467 
L 337.226781 110.076808 
L 474.9029 70.726945 
" clip-path="url(#p058911653e)" style="fill: none; stroke: #8a99a8; stroke-opacity: 0.55; stroke-width: 0.9; stroke-linecap: square"/>
    <g clip-path="url(#p058911653e)">
     <use xlink:href="#m2aab3cba64" x="61.874543" y="110.144187" style="fill: #8a99a8; fill-opacity: 0.55; stroke: #8a99a8; stroke-opacity: 0.55"/>
     <use xlink:href="#m2aab3cba64" x="199.550662" y="110.548467" style="fill: #8a99a8; fill-opacity: 0.55; stroke: #8a99a8; stroke-opacity: 0.55"/>
     <use xlink:href="#m2aab3cba64" x="337.226781" y="110.076808" style="fill: #8a99a8; fill-opacity: 0.55; stroke: #8a99a8; stroke-opacity: 0.55"/>
     <use xlink:href="#m2aab3cba64" x="474.9029" y="70.726945" style="fill: #8a99a8; fill-opacity: 0.55; stroke: #8a99a8; stroke-opacity: 0.55"/>
    </g>
   </g>
   <g id="line2d_21">
    <path d="M 61.874543 22.707535 
L 199.550662 22.707535 
L 337.226781 28.434826 
L 474.9029 20.798437 
" clip-path="url(#p058911653e)" style="fill: none; stroke: #8a99a8; stroke-opacity: 0.55; stroke-width: 0.9; stroke-linecap: square"/>
    <g clip-path="url(#p058911653e)">
     <use xlink:href="#m2aab3cba64" x="61.874543" y="22.707535" style="fill: #8a99a8; fill-opacity: 0.55; stroke: #8a99a8; stroke-opacity: 0.55"/>
     <use xlink:href="#m2aab3cba64" x="199.550662" y="22.707535" style="fill: #8a99a8; fill-opacity: 0.55; stroke: #8a99a8; stroke-opacity: 0.55"/>
     <use xlink:href="#m2aab3cba64" x="337.226781" y="28.434826" style="fill: #8a99a8; fill-opacity: 0.55; stroke: #8a99a8; stroke-opacity: 0.55"/>
     <use xlink:href="#m2aab3cba64" x="474.9029" y="20.798437" style="fill: #8a99a8; fill-opacity: 0.55; stroke: #8a99a8; stroke-opacity: 0.55"/>
    </g>
   </g>
   <g id="line2d_22">
    <path d="M 61.874543 20.798437 
L 199.550662 20.798437 
L 337.226781 22.946172 
L 474.9029 20.798437 
" clip-path="url(#p058911653e)" style="fill: none; stroke: #8a99a8; stroke-opacity: 0.55; stroke-width: 0.9; stroke-linecap: square"/>
    <g clip-path="url(#p058911653e)">
     <use xlink:href="#m2aab3cba64" x="61.874543" y="20.798437" style="fill: #8a99a8; fill-opacity: 0.55; stroke: #8a99a8; stroke-opacity: 0.55"/>
     <use xlink:href="#m2aab3cba64" x="199.550662" y="20.798437" style="fill: #8a99a8; fill-opacity: 0.55; stroke: #8a99a8; stroke-opacity: 0.55"/>
     <use xlink:href="#m2aab3cba64" x="337.226781" y="22.946172" style="fill: #8a99a8; fill-opacity: 0.55; stroke: #8a99a8; stroke-opacity: 0.55"/>
     <use xlink:href="#m2aab3cba64" x="474.9029" y="20.798437" style="fill: #8a99a8; fill-opacity: 0.55; stroke: #8a99a8; stroke-opacity: 0.55"/>
    </g>
   </g>
   <g id="line2d_23">
    <path d="M 61.874543 41.289414 
L 199.550662 28.434826 
L 337.226781 26.14391 
L 474.9029 23.852993 
" clip-path="url(#p058911653e)" style="fill: none; stroke: #8a99a8; stroke-opacity: 0.55; stroke-width: 0.9; stroke-linecap: square"/>
    <g clip-path="url(#p058911653e)">
     <use xlink:href="#m2aab3cba64" x="61.874543" y="41.289414" style="fill: #8a99a8; fill-opacity: 0.55; stroke: #8a99a8; stroke-opacity: 0.55"/>
     <use xlink:href="#m2aab3cba64" x="199.550662" y="28.434826" style="fill: #8a99a8; fill-opacity: 0.55; stroke: #8a99a8; stroke-opacity: 0.55"/>
     <use xlink:href="#m2aab3cba64" x="337.226781" y="26.14391" style="fill: #8a99a8; fill-opacity: 0.55; stroke: #8a99a8; stroke-opacity: 0.55"/>
     <use xlink:href="#m2aab3cba64" x="474.9029" y="23.852993" style="fill: #8a99a8; fill-opacity: 0.55; stroke: #8a99a8; stroke-opacity: 0.55"/>
    </g>
   </g>
   <g id="line2d_24">
    <path d="M 61.874543 32.253021 
L 199.550662 27.671187 
L 337.226781 29.962104 
L 474.9029 29.962104 
" clip-path="url(#p058911653e)" style="fill: none; stroke: #8a99a8; stroke-opacity: 0.55; stroke-width: 0.9; stroke-linecap: square"/>
    <g clip-path="url(#p058911653e)">
     <use xlink:href="#m2aab3cba64" x="61.874543" y="32.253021" style="fill: #8a99a8; fill-opacity: 0.55; stroke: #8a99a8; stroke-opacity: 0.55"/>
     <use xlink:href="#m2aab3cba64" x="199.550662" y="27.671187" style="fill: #8a99a8; fill-opacity: 0.55; stroke: #8a99a8; stroke-opacity: 0.55"/>
     <use xlink:href="#m2aab3cba64" x="337.226781" y="29.962104" style="fill: #8a99a8; fill-opacity: 0.55; stroke: #8a99a8; stroke-opacity: 0.55"/>
     <use xlink:href="#m2aab3cba64" x="474.9029" y="29.962104" style="fill: #8a99a8; fill-opacity: 0.55; stroke: #8a99a8; stroke-opacity: 0.55"/>
    </g>
   </g>
   <g id="line2d_25">
    <path d="M 61.874543 47.352244 
L 199.550662 52.03821 
L 337.226781 56.724176 
L 474.9029 47.352244 
" clip-path="url(#p058911653e)" style="fill: none; stroke: #8a99a8; stroke-opacity: 0.55; stroke-width: 0.9; stroke-linecap: square"/>
    <g clip-path="url(#p058911653e)">
     <use xlink:href="#m2aab3cba64" x="61.874543" y="47.352244" style="fill: #8a99a8; fill-opacity: 0.55; stroke: #8a99a8; stroke-opacity: 0.55"/>
     <use xlink:href="#m2aab3cba64" x="199.550662" y="52.03821" style="fill: #8a99a8; fill-opacity: 0.55; stroke: #8a99a8; stroke-opacity: 0.55"/>
     <use xlink:href="#m2aab3cba64" x="337.226781" y="56.724176" style="fill: #8a99a8; fill-opacity: 0.55; stroke: #8a99a8; stroke-opacity: 0.55"/>
     <use xlink:href="#m2aab3cba64" x="474.9029" y="47.352244" style="fill: #8a99a8; fill-opacity: 0.55; stroke: #8a99a8; stroke-opacity: 0.55"/>
    </g>
   </g>
   <g id="line2d_26">
    <path d="M 61.874543 67.857684 
L 199.550662 58.598562 
L 337.226781 60.794024 
L 474.9029 59.075837 
" clip-path="url(#p058911653e)" style="fill: none; stroke: #8a99a8; stroke-opacity: 0.55; stroke-width: 0.9; stroke-linecap: square"/>
    <g clip-path="url(#p058911653e)">
     <use xlink:href="#m2aab3cba64" x="61.874543" y="67.857684" style="fill: #8a99a8; fill-opacity: 0.55; stroke: #8a99a8; stroke-opacity: 0.55"/>
     <use xlink:href="#m2aab3cba64" x="199.550662" y="58.598562" style="fill: #8a99a8; fill-opacity: 0.55; stroke: #8a99a8; stroke-opacity: 0.55"/>
     <use xlink:href="#m2aab3cba64" x="337.226781" y="60.794024" style="fill: #8a99a8; fill-opacity: 0.55; stroke: #8a99a8; stroke-opacity: 0.55"/>
     <use xlink:href="#m2aab3cba64" x="474.9029" y="59.075837" style="fill: #8a99a8; fill-opacity: 0.55; stroke: #8a99a8; stroke-opacity: 0.55"/>
    </g>
   </g>
   <g id="line2d_27">
    <path d="M 61.874543 53.708558 
L 199.550662 50.23889 
L 337.226781 50.994708 
L 474.9029 42.400354 
" clip-path="url(#p058911653e)" style="fill: none; stroke: #1261a0; stroke-width: 2.5; stroke-linecap: square"/>
    <defs>
     <path id="m23103672da" d="M 0 3 
C 0.795609 3 1.55874 2.683901 2.12132 2.12132 
C 2.683901 1.55874 3 0.795609 3 0 
C 3 -0.795609 2.683901 -1.55874 2.12132 -2.12132 
C 1.55874 -2.683901 0.795609 -3 0 -3 
C -0.795609 -3 -1.55874 -2.683901 -2.12132 -2.12132 
C -2.683901 -1.55874 -3 -0.795609 -3 0 
C -3 0.795609 -2.683901 1.55874 -2.12132 2.12132 
C -1.55874 2.683901 -0.795609 3 0 3 
z
" style="stroke: #1261a0"/>
    </defs>
    <g clip-path="url(#p058911653e)">
     <use xlink:href="#m23103672da" x="61.874543" y="53.708558" style="fill: #1261a0; stroke: #1261a0"/>
     <use xlink:href="#m23103672da" x="199.550662" y="50.23889" style="fill: #1261a0; stroke: #1261a0"/>
     <use xlink:href="#m23103672da" x="337.226781" y="50.994708" style="fill: #1261a0; stroke: #1261a0"/>
     <use xlink:href="#m23103672da" x="474.9029" y="42.400354" style="fill: #1261a0; stroke: #1261a0"/>
    </g>
   </g>
   <g id="patch_3">
    <path d="M 41.223125 295.708437 
L 41.223125 20.798437 
" style="fill: none; stroke: #000000; stroke-width: 0.8; stroke-linejoin: miter; stroke-linecap: square"/>
   </g>
   <g id="patch_4">
    <path d="M 41.223125 295.708437 
L 495.554318 295.708437 
" style="fill: none; stroke: #000000; stroke-width: 0.8; stroke-linejoin: miter; stroke-linecap: square"/>
   </g>
   <g id="text_12">
    <!-- Claim-weighted preservation across measures -->
    <g transform="translate(152.540284 14.798437) scale(0.1 -0.1)">
     <defs>
      <path id="DejaVuSans-2d" d="M 313 2009 
L 1997 2009 
L 1997 1497 
L 313 1497 
L 313 2009 
z
" transform="scale(0.015625)"/>
      <path id="DejaVuSans-77" d="M 269 3500 
L 844 3500 
L 1563 769 
L 2278 3500 
L 2956 3500 
L 3675 769 
L 4391 3500 
L 4966 3500 
L 4050 0 
L 3372 0 
L 2619 2869 
L 1863 0 
L 1184 0 
L 269 3500 
z
" transform="scale(0.015625)"/>
      <path id="DejaVuSans-68" d="M 3513 2113 
L 3513 0 
L 2938 0 
L 2938 2094 
Q 2938 2591 2744 2837 
Q 2550 3084 2163 3084 
Q 1697 3084 1428 2787 
Q 1159 2491 1159 1978 
L 1159 0 
L 581 0 
L 581 4863 
L 1159 4863 
L 1159 2956 
Q 1366 3272 1645 3428 
Q 1925 3584 2291 3584 
Q 2894 3584 3203 3211 
Q 3513 2838 3513 2113 
z
" transform="scale(0.015625)"/>
      <path id="DejaVuSans-75" d="M 544 1381 
L 544 3500 
L 1119 3500 
L 1119 1403 
Q 1119 906 1312 657 
Q 1506 409 1894 409 
Q 2359 409 2629 706 
Q 2900 1003 2900 1516 
L 2900 3500 
L 3475 3500 
L 3475 0 
L 2900 0 
L 2900 538 
Q 2691 219 2414 64 
Q 2138 -91 1772 -91 
Q 1169 -91 856 284 
Q 544 659 544 1381 
z
M 1991 3584 
L 1991 3584 
z
" transform="scale(0.015625)"/>
     </defs>
     <use xlink:href="#DejaVuSans-43"/>
     <use xlink:href="#DejaVuSans-6c" transform="translate(69.824219 0)"/>
     <use xlink:href="#DejaVuSans-61" transform="translate(97.607422 0)"/>
     <use xlink:href="#DejaVuSans-69" transform="translate(158.886719 0)"/>
     <use xlink:href="#DejaVuSans-6d" transform="translate(186.669922 0)"/>
     <use xlink:href="#DejaVuSans-2d" transform="translate(284.082031 0)"/>
     <use xlink:href="#DejaVuSans-77" transform="translate(320.166016 0)"/>
     <use xlink:href="#DejaVuSans-65" transform="translate(401.953125 0)"/>
     <use xlink:href="#DejaVuSans-69" transform="translate(463.476562 0)"/>
     <use xlink:href="#DejaVuSans-67" transform="translate(491.259766 0)"/>
     <use xlink:href="#DejaVuSans-68" transform="translate(554.736328 0)"/>
     <use xlink:href="#DejaVuSans-74" transform="translate(618.115234 0)"/>
     <use xlink:href="#DejaVuSans-65" transform="translate(657.324219 0)"/>
     <use xlink:href="#DejaVuSans-64" transform="translate(718.847656 0)"/>
     <use xlink:href="#DejaVuSans-20" transform="translate(782.324219 0)"/>
     <use xlink:href="#DejaVuSans-70" transform="translate(814.111328 0)"/>
     <use xlink:href="#DejaVuSans-72" transform="translate(877.587891 0)"/>
     <use xlink:href="#DejaVuSans-65" transform="translate(916.451172 0)"/>
     <use xlink:href="#DejaVuSans-73" transform="translate(977.974609 0)"/>
     <use xlink:href="#DejaVuSans-65" transform="translate(1030.074219 0)"/>
     <use xlink:href="#DejaVuSans-72" transform="translate(1091.597656 0)"/>
     <use xlink:href="#DejaVuSans-76" transform="translate(1132.710938 0)"/>
     <use xlink:href="#DejaVuSans-61" transform="translate(1191.890625 0)"/>
     <use xlink:href="#DejaVuSans-74" transform="translate(1253.169922 0)"/>
     <use xlink:href="#DejaVuSans-69" transform="translate(1292.378906 0)"/>
     <use xlink:href="#DejaVuSans-6f" transform="translate(1320.162109 0)"/>
     <use xlink:href="#DejaVuSans-6e" transform="translate(1381.34375 0)"/>
     <use xlink:href="#DejaVuSans-20" transform="translate(1444.722656 0)"/>
     <use xlink:href="#DejaVuSans-61" transform="translate(1476.509766 0)"/>
     <use xlink:href="#DejaVuSans-63" transform="translate(1537.789062 0)"/>
     <use xlink:href="#DejaVuSans-72" transform="translate(1592.769531 0)"/>
     <use xlink:href="#DejaVuSans-6f" transform="translate(1631.632812 0)"/>
     <use xlink:href="#DejaVuSans-73" transform="translate(1692.814453 0)"/>
     <use xlink:href="#DejaVuSans-73" transform="translate(1744.914062 0)"/>
     <use xlink:href="#DejaVuSans-20" transform="translate(1797.013672 0)"/>
     <use xlink:href="#DejaVuSans-6d" transform="translate(1828.800781 0)"/>
     <use xlink:href="#DejaVuSans-65" transform="translate(1926.212891 0)"/>
     <use xlink:href="#DejaVuSans-61" transform="translate(1987.736328 0)"/>
     <use xlink:href="#DejaVuSans-73" transform="translate(2049.015625 0)"/>
     <use xlink:href="#DejaVuSans-75" transform="translate(2101.115234 0)"/>
     <use xlink:href="#DejaVuSans-72" transform="translate(2164.494141 0)"/>
     <use xlink:href="#DejaVuSans-65" transform="translate(2203.357422 0)"/>
     <use xlink:href="#DejaVuSans-73" transform="translate(2264.880859 0)"/>
    </g>
   </g>
   <g id="legend_1">
    <g id="line2d_28">
     <path d="M 374.378068 284.044687 
L 382.378068 284.044687 
L 390.378068 284.044687 
" style="fill: none; stroke: #1261a0; stroke-width: 2.5; stroke-linecap: square"/>
     <g>
      <use xlink:href="#m23103672da" x="382.378068" y="284.044687" style="fill: #1261a0; stroke: #1261a0"/>
     </g>
    </g>
    <g id="text_13">
     <!-- Mean across measures -->
     <g transform="translate(396.778068 286.844687) scale(0.08 -0.08)">
      <defs>
       <path id="DejaVuSans-4d" d="M 628 4666 
L 1569 4666 
L 2759 1491 
L 3956 4666 
L 4897 4666 
L 4897 0 
L 4281 0 
L 4281 4097 
L 3078 897 
L 2444 897 
L 1241 4097 
L 1241 0 
L 628 0 
L 628 4666 
z
" transform="scale(0.015625)"/>
      </defs>
      <use xlink:href="#DejaVuSans-4d"/>
      <use xlink:href="#DejaVuSans-65" transform="translate(86.279297 0)"/>
      <use xlink:href="#DejaVuSans-61" transform="translate(147.802734 0)"/>
      <use xlink:href="#DejaVuSans-6e" transform="translate(209.082031 0)"/>
      <use xlink:href="#DejaVuSans-20" transform="translate(272.460938 0)"/>
      <use xlink:href="#DejaVuSans-61" transform="translate(304.248047 0)"/>
      <use xlink:href="#DejaVuSans-63" transform="translate(365.527344 0)"/>
      <use xlink:href="#DejaVuSans-72" transform="translate(420.507812 0)"/>
      <use xlink:href="#DejaVuSans-6f" transform="translate(459.371094 0)"/>
      <use xlink:href="#DejaVuSans-73" transform="translate(520.552734 0)"/>
      <use xlink:href="#DejaVuSans-73" transform="translate(572.652344 0)"/>
      <use xlink:href="#DejaVuSans-20" transform="translate(624.751953 0)"/>
      <use xlink:href="#DejaVuSans-6d" transform="translate(656.539062 0)"/>
      <use xlink:href="#DejaVuSans-65" transform="translate(753.951172 0)"/>
      <use xlink:href="#DejaVuSans-61" transform="translate(815.474609 0)"/>
      <use xlink:href="#DejaVuSans-73" transform="translate(876.753906 0)"/>
      <use xlink:href="#DejaVuSans-75" transform="translate(928.853516 0)"/>
      <use xlink:href="#DejaVuSans-72" transform="translate(992.232422 0)"/>
      <use xlink:href="#DejaVuSans-65" transform="translate(1031.095703 0)"/>
      <use xlink:href="#DejaVuSans-73" transform="translate(1092.619141 0)"/>
     </g>
    </g>
   </g>
  </g>
 </g>
 <defs>
  <clipPath id="p058911653e">
   <rect x="41.223125" y="20.798437" width="454.331193" height="274.91"/>
  </clipPath>
 </defs>
</svg>
